# xmcd
#
# Track frame offsets:
#	150
#	20799
#	42330
#	67035
#	89056
#	111616
#	131668
#	161372
#	181762
#	205197
#	230301
#	245165
#	266430
#
# Disc length: 3846 seconds
#
# Revision: 1
# Processed by: cddbd v1.4PL0 Copyright (c) Steve Scherf et al.
# Submitted via: audiograbber 1.80
#
DISCID=be0f040d
DTITLE=Big Rick and The Bombers - Too Much Money
DYEAR=1900
DGENRE=
TTITLE0=I.C.U.
TTITLE1=Don't Say A Word
TTITLE2=Sugar Daddy
TTITLE3=Freakazoid
TTITLE4=Money Hungry Mama
TTITLE5=For So Long
TTITLE6=Too Much Money
TTITLE7=Blood From A Stone
TTITLE8=Talk All Funny
TTITLE9=Without A Word
TTITLE10=All I Want
TTITLE11=Complaint Dept.
TTITLE12=Hold On
EXTD=
EXTT0=
EXTT1=
EXTT2=
EXTT3=
EXTT4=
EXTT5=
EXTT6=
EXTT7=
EXTT8=
EXTT9=
EXTT10=
EXTT11=
EXTT12=
PLAYORDER=
